<?xml version="1.0" encoding="UTF-8"?>
<svg version="1.1" xmlns="http://www.w3.org/2000/svg" width="1133" height="220">
<path d="M0 0 C0.94204788 -0.00004028 1.88409576 -0.00008057 2.85469055 -0.00012207 C4.84419436 0.00522553 6.83369816 0.0227757 8.82299805 0.05175781 C11.83644785 0.09337938 14.84764096 0.09284001 17.86132812 0.0859375 C29.66213418 0.12446759 40.23791047 0.58358741 50.86328125 6.28125 C51.69214844 6.71824219 52.52101563 7.15523438 53.375 7.60546875 C53.96925781 7.93160156 54.56351562 8.25773437 55.17578125 8.59375 C55.17578125 9.25375 55.17578125 9.91375 55.17578125 10.59375 C56.49578125 10.92375 57.81578125 11.25375 59.17578125 11.59375 C59.17578125 12.25375 59.17578125 12.91375 59.17578125 13.59375 C59.83578125 13.59375 60.49578125 13.59375 61.17578125 13.59375 C61.17578125 14.25375 61.17578125 14.91375 61.17578125 15.59375 C61.83578125 15.59375 62.49578125 15.59375 63.17578125 15.59375 C66.01518645 19.26827438 67.17578125 20.86261581 67.17578125 25.59375 C67.83578125 25.59375 68.49578125 25.59375 69.17578125 25.59375 C69.17578125 27.57375 69.17578125 29.55375 69.17578125 31.59375 C69.83578125 31.59375 70.49578125 31.59375 71.17578125 31.59375 C71.67078125 35.05875 71.67078125 35.05875 72.17578125 38.59375 C80.82536247 38.53248974 89.47461482 38.45534853 98.12386608 38.35803509 C102.14025547 38.3133432 106.15654371 38.27408465 110.1730957 38.24731445 C114.05067429 38.22126939 117.92786337 38.18085899 121.80520058 38.13056374 C123.28308574 38.11390305 124.76103827 38.10238378 126.23900414 38.09613609 C128.31233749 38.08648585 130.38467621 38.0584183 132.45776367 38.02612305 C133.63690842 38.01501999 134.81605316 38.00391693 136.03092957 37.99247742 C139.51344761 37.55093818 141.42354118 36.75352857 144.17578125 34.59375 C145.06785304 31.4980393 145.06785304 31.4980393 145.17578125 28.59375 C144.51578125 28.59375 143.85578125 28.59375 143.17578125 28.59375 C143.17578125 27.93375 143.17578125 27.27375 143.17578125 26.59375 C139.79414246 25.46653707 137.17455354 25.4415744 133.60888672 25.40429688 C132.61577484 25.39185692 132.61577484 25.39185692 131.6026001 25.37916565 C130.16703536 25.36178696 128.7314426 25.3466142 127.29583359 25.33338928 C125.02691004 25.3123511 122.75812811 25.2853318 120.48928833 25.25671387 C114.8568628 25.18690497 109.22433705 25.12738553 103.59179688 25.06768799 C98.82854228 25.016836 94.06536556 24.96205006 89.30221939 24.90187073 C87.06143732 24.87521966 84.82064824 24.85445543 82.57980347 24.8338623 C81.21449431 24.81726735 79.84918847 24.80039623 78.48388672 24.78320312 C77.28714325 24.77067505 76.09039978 24.75814697 74.85739136 24.74523926 C72.17578125 24.59375 72.17578125 24.59375 71.17578125 23.59375 C70.73568761 19.72092599 70.89239806 18.02827089 73.05078125 14.71875 C74.10265625 13.666875 74.10265625 13.666875 75.17578125 12.59375 C75.83578125 12.59375 76.49578125 12.59375 77.17578125 12.59375 C77.17578125 11.60375 77.17578125 10.61375 77.17578125 9.59375 C77.83578125 9.59375 78.49578125 9.59375 79.17578125 9.59375 C79.17578125 8.93375 79.17578125 8.27375 79.17578125 7.59375 C79.83578125 7.59375 80.49578125 7.59375 81.17578125 7.59375 C81.17578125 6.93375 81.17578125 6.27375 81.17578125 5.59375 C81.83578125 5.59375 82.49578125 5.59375 83.17578125 5.59375 C83.63984375 4.6346875 83.63984375 4.6346875 84.11328125 3.65625 C85.17578125 1.59375 85.17578125 1.59375 86.17578125 0.59375 C87.86100208 0.48445532 89.55078373 0.44467317 91.23950195 0.43261719 C92.32185623 0.42300964 93.40421051 0.4134021 94.5193634 0.40350342 C95.70148911 0.39925354 96.88361481 0.39500366 98.1015625 0.390625 C99.31466599 0.38492493 100.52776947 0.37922485 101.77763367 0.37335205 C104.35768761 0.363878 106.93775379 0.35735859 109.51782227 0.35351562 C113.43332773 0.34388516 117.34829147 0.31291543 121.26367188 0.28125 C123.77213231 0.27471262 126.28059649 0.26946504 128.7890625 0.265625 C130.52885124 0.2471048 130.52885124 0.2471048 132.30378723 0.22821045 C142.13060486 0.25461198 151.6478824 1.59011735 160.23828125 6.65625 C161.11613281 7.16285156 161.99398437 7.66945313 162.8984375 8.19140625 C164.68065378 9.28886019 166.43428985 10.43275573 168.17578125 11.59375 C168.17578125 12.58375 168.17578125 13.57375 168.17578125 14.59375 C168.83578125 14.59375 169.49578125 14.59375 170.17578125 14.59375 C175.13371742 23.1152028 174.570713 31.03859562 174.17578125 40.59375 C173.51578125 40.59375 172.85578125 40.59375 172.17578125 40.59375 C172.07265625 41.315625 171.96953125 42.0375 171.86328125 42.78125 C171.10784178 45.87168421 170.0204681 48.01118841 168.17578125 50.59375 C167.51578125 50.59375 166.85578125 50.59375 166.17578125 50.59375 C166.17578125 51.25375 166.17578125 51.91375 166.17578125 52.59375 C163.17578125 54.59375 163.17578125 54.59375 160.17578125 54.59375 C160.17578125 55.25375 160.17578125 55.91375 160.17578125 56.59375 C160.83578125 56.59375 161.49578125 56.59375 162.17578125 56.59375 C162.17578125 57.25375 162.17578125 57.91375 162.17578125 58.59375 C162.83578125 58.59375 163.49578125 58.59375 164.17578125 58.59375 C164.17578125 59.25375 164.17578125 59.91375 164.17578125 60.59375 C164.83578125 60.59375 165.49578125 60.59375 166.17578125 60.59375 C166.17578125 61.25375 166.17578125 61.91375 166.17578125 62.59375 C166.83578125 62.59375 167.49578125 62.59375 168.17578125 62.59375 C168.17578125 63.25375 168.17578125 63.91375 168.17578125 64.59375 C168.75328125 64.696875 169.33078125 64.8 169.92578125 64.90625 C172.53239283 65.70271465 174.14931235 66.78440277 176.17578125 68.59375 C176.17578125 69.25375 176.17578125 69.91375 176.17578125 70.59375 C176.83578125 70.59375 177.49578125 70.59375 178.17578125 70.59375 C178.17578125 71.25375 178.17578125 71.91375 178.17578125 72.59375 C181.05390265 72.2511165 181.97701586 71.84529759 183.80859375 69.52734375 C184.30101562 68.70363281 184.7934375 67.87992187 185.30078125 67.03125 C186.20999347 65.52139241 187.15824738 64.03283361 188.17578125 62.59375 C188.83578125 62.59375 189.49578125 62.59375 190.17578125 62.59375 C191.16578125 59.62375 191.16578125 59.62375 192.17578125 56.59375 C192.83578125 56.59375 193.49578125 56.59375 194.17578125 56.59375 C195.16578125 53.62375 195.16578125 53.62375 196.17578125 50.59375 C196.83578125 50.59375 197.49578125 50.59375 198.17578125 50.59375 C198.43617188 49.85898438 198.6965625 49.12421875 198.96484375 48.3671875 C200.19928978 45.53990788 201.59228178 43.58776464 203.55078125 41.21875 C206.05131496 38.09565542 208.16089597 35.02716896 210.07421875 31.5 C211.53639364 28.96971154 213.15337871 26.56972862 214.80078125 24.15625 C215.39117187 23.29128906 215.9815625 22.42632812 216.58984375 21.53515625 C217.11320313 20.89449219 217.6365625 20.25382812 218.17578125 19.59375 C218.83578125 19.59375 219.49578125 19.59375 220.17578125 19.59375 C220.83578125 17.61375 221.49578125 15.63375 222.17578125 13.59375 C222.83578125 13.59375 223.49578125 13.59375 224.17578125 13.59375 C224.51609375 12.7584375 224.51609375 12.7584375 224.86328125 11.90625 C227.81132618 6.7120756 232.5512983 2.64298022 238.17578125 0.59375 C243.55841239 -0.35612608 247.83105007 0.00488004 252.55078125 2.84375 C255.35833569 4.84995793 257.96664788 6.92438051 260.17578125 9.59375 C260.17578125 10.25375 260.17578125 10.91375 260.17578125 11.59375 C260.83578125 11.59375 261.49578125 11.59375 262.17578125 11.59375 C263.2217569 13.23195411 264.21271638 14.90547164 265.17578125 16.59375 C266.42855889 18.35672066 267.70040209 20.10625622 268.98828125 21.84375 C272.52952757 26.6733108 275.89423413 31.58554862 279.17578125 36.59375 C282.53145015 41.67924258 285.94646343 46.71684846 289.42578125 51.71875 C290.18898812 52.82669479 290.95200411 53.93477109 291.71484375 55.04296875 C293.45343027 57.56569327 295.22596048 60.06126691 297.01171875 62.55078125 C297.94198409 63.87719909 298.8716833 65.20401419 299.80078125 66.53125 C300.47608887 67.45284912 300.47608887 67.45284912 301.16503906 68.39306641 C303.29761204 71.47915367 304.1961288 73.17468738 304.01171875 76.97265625 C303.17578125 79.59375 303.17578125 79.59375 302.17578125 80.59375 C299.57504304 80.7048017 297.00061008 80.75114055 294.39892578 80.75488281 C293.17698517 80.76233017 293.17698517 80.76233017 291.93035889 80.76992798 C289.22309539 80.78458796 286.51589049 80.79135802 283.80859375 80.796875 C281.93390907 80.80262339 280.05922442 80.80838116 278.18453979 80.81414795 C274.24851201 80.82466893 270.31250472 80.83050437 266.37646484 80.83398438 C261.32655298 80.83947076 256.27691053 80.86349722 251.22708321 80.89195633 C247.35296837 80.91055686 243.47891875 80.91578693 239.60476303 80.91732025 C237.7427816 80.92035328 235.88080149 80.92840358 234.01886368 80.94150543 C231.4161745 80.95851182 228.81414758 80.95669907 226.21142578 80.95019531 C225.43832062 80.9594101 224.66521545 80.96862488 223.86868286 80.9781189 C218.62721917 80.93697466 218.62721917 80.93697466 216.17355347 79.07147217 C215.84428864 78.58382385 215.5150238 78.09617554 215.17578125 77.59375 C214.81548828 78.08270752 214.45519531 78.57166504 214.08398438 79.07543945 C211.29615467 81.29364735 209.16902385 80.9336382 205.64453125 80.88671875 C204.35933594 80.87705078 203.07414063 80.86738281 201.75 80.85742188 C200.39192058 80.83238137 199.03384765 80.8069869 197.67578125 80.78125 C196.31772295 80.76619643 194.95964876 80.7525092 193.6015625 80.74023438 C191.11124813 80.71400739 188.62098594 80.68164688 186.13085938 80.64135742 C182.28577429 80.57941165 178.44717337 80.61655249 174.60218811 80.67070007 C171.47338976 80.71062364 168.34453707 80.73516422 165.21557617 80.75854492 C163.56577842 80.77366576 161.91602107 80.79416253 160.26635742 80.82006836 C157.88320101 80.85649059 155.50057154 80.87347799 153.1171875 80.88671875 C152.38166153 80.90220261 151.64613556 80.91768646 150.88832092 80.93363953 C147.68515654 80.9346903 145.50324605 80.7765218 142.67944336 79.20043945 C141.17578125 77.59375 141.17578125 77.59375 141.17578125 75.59375 C140.55703125 75.284375 139.93828125 74.975 139.30078125 74.65625 C137.92578125 73.96875 136.55078125 73.28125 135.17578125 72.59375 C135.17578125 71.93375 135.17578125 71.27375 135.17578125 70.59375 C134.51578125 70.59375 133.85578125 70.59375 133.17578125 70.59375 C133.17578125 69.93375 133.17578125 69.27375 133.17578125 68.59375 C131.85578125 68.26375 130.53578125 67.93375 129.17578125 67.59375 C129.17578125 66.93375 129.17578125 66.27375 129.17578125 65.59375 C125.77714742 63.55026763 123.03158022 63.29539115 119.09765625 63.1796875 C117.9375 63.14101562 116.77734375 63.10234375 115.58203125 63.0625 C114.37546875 63.0315625 113.16890625 63.000625 111.92578125 62.96875 C110.70375 62.93007812 109.48171875 62.89140625 108.22265625 62.8515625 C105.20727899 62.75733196 102.19155085 62.67445369 99.17578125 62.59375 C99.17578125 67.54375 99.17578125 72.49375 99.17578125 77.59375 C98.51578125 77.59375 97.85578125 77.59375 97.17578125 77.59375 C96.68078125 79.07875 96.68078125 79.07875 96.17578125 80.59375 C88.25578125 80.59375 80.33578125 80.59375 72.17578125 80.59375 C71.84578125 79.60375 71.51578125 78.61375 71.17578125 77.59375 C70.51578125 77.59375 69.85578125 77.59375 69.17578125 77.59375 C68.84578125 70.33375 68.51578125 63.07375 68.17578125 55.59375 C66.52578125 58.56375 64.87578125 61.53375 63.17578125 64.59375 C62.51578125 64.59375 61.85578125 64.59375 61.17578125 64.59375 C61.17578125 65.25375 61.17578125 65.91375 61.17578125 66.59375 C60.51578125 66.59375 59.85578125 66.59375 59.17578125 66.59375 C59.17578125 67.25375 59.17578125 67.91375 59.17578125 68.59375 C58.51578125 68.59375 57.85578125 68.59375 57.17578125 68.59375 C57.17578125 69.25375 57.17578125 69.91375 57.17578125 70.59375 C55.12890625 72.03125 55.12890625 72.03125 52.42578125 73.59375 C51.5440625 74.109375 50.66234375 74.625 49.75390625 75.15625 C40.22546862 80.46907583 31.49808632 80.88814865 20.6796875 80.82421875 C19.40979477 80.82376053 18.13990204 80.82330231 16.83152771 80.8228302 C14.16301669 80.81982224 11.49485965 80.81307295 8.82641602 80.79956055 C5.4044132 80.78245105 1.98255792 80.7787503 -1.43948269 80.77950573 C-4.71227392 80.77916921 -7.98503411 80.77034221 -11.2578125 80.76171875 C-12.48793564 80.76060593 -13.71805878 80.7594931 -14.98545837 80.75834656 C-16.1174617 80.75196671 -17.24946503 80.74558685 -18.41577148 80.73901367 C-19.91393654 80.73329597 -19.91393654 80.73329597 -21.44236755 80.72746277 C-23.82421875 80.59375 -23.82421875 80.59375 -25.82421875 79.59375 C-28.29817859 69.48838334 -28.0736669 59.04325043 -27.94921875 48.71875 C-27.93915204 47.2408916 -27.93003282 45.76302642 -27.921875 44.28515625 C-27.90019246 40.72120972 -27.86587411 37.15752585 -27.82421875 33.59375 C-27.16421875 33.59375 -26.50421875 33.59375 -25.82421875 33.59375 C-25.82421875 32.60375 -25.82421875 31.61375 -25.82421875 30.59375 C-25.16421875 30.59375 -24.50421875 30.59375 -23.82421875 30.59375 C-23.82421875 29.93375 -23.82421875 29.27375 -23.82421875 28.59375 C-20.03261578 28.53588332 -16.24112564 28.50019946 -12.44921875 28.46875 C-11.36898437 28.45199219 -10.28875 28.43523437 -9.17578125 28.41796875 C-8.14453125 28.41152344 -7.11328125 28.40507813 -6.05078125 28.3984375 C-4.62113037 28.38272705 -4.62113037 28.38272705 -3.16259766 28.36669922 C-0.82421875 28.59375 -0.82421875 28.59375 1.17578125 30.59375 C1.40283203 33.20751953 1.40283203 33.20751953 1.37109375 36.4765625 C1.36609863 37.52730957 1.36110352 38.57805664 1.35595703 39.66064453 C1.32864502 41.66940674 1.32864502 41.66940674 1.30078125 43.71875 C1.25953125 47.9675 1.21828125 52.21625 1.17578125 56.59375 C10.74578125 56.59375 20.31578125 56.59375 30.17578125 56.59375 C30.17578125 55.93375 30.17578125 55.27375 30.17578125 54.59375 C32.48578125 53.93375 34.79578125 53.27375 37.17578125 52.59375 C37.17578125 51.93375 37.17578125 51.27375 37.17578125 50.59375 C37.83578125 50.59375 38.49578125 50.59375 39.17578125 50.59375 C40.19923611 47.21472444 40.30958475 44.11514987 40.30078125 40.59375 C40.30335938 39.5625 40.3059375 38.53125 40.30859375 37.46875 C40.19295122 34.9654293 40.07021392 32.92891552 39.17578125 30.59375 C36.68543739 29.29714566 36.68543739 29.29714566 34.17578125 28.59375 C34.17578125 27.93375 34.17578125 27.27375 34.17578125 26.59375 C30.62229788 25.78906244 27.30745515 25.45254986 23.66699219 25.40429688 C22.58947693 25.38757935 21.51196167 25.37086182 20.40179443 25.3536377 C18.67343353 25.33327454 18.67343353 25.33327454 16.91015625 25.3125 C15.12644623 25.28488586 15.12644623 25.28488586 13.30670166 25.25671387 C8.22050952 25.17803687 3.13418909 25.11003049 -1.95214844 25.04150391 C-5.66478379 24.98995266 -9.37729909 24.93266055 -13.08984375 24.875 C-14.25018127 24.86142456 -15.4105188 24.84784912 -16.60601807 24.8338623 C-17.67092468 24.81714478 -18.7358313 24.80042725 -19.83300781 24.78320312 C-20.77501038 24.77067505 -21.71701294 24.75814697 -22.68756104 24.74523926 C-24.82421875 24.59375 -24.82421875 24.59375 -25.82421875 23.59375 C-26.11808028 19.87150401 -25.97231046 18.81588757 -23.82421875 15.59375 C-23.16421875 15.59375 -22.50421875 15.59375 -21.82421875 15.59375 C-21.82421875 14.60375 -21.82421875 13.61375 -21.82421875 12.59375 C-21.16421875 12.59375 -20.50421875 12.59375 -19.82421875 12.59375 C-19.82421875 11.93375 -19.82421875 11.27375 -19.82421875 10.59375 C-19.16421875 10.59375 -18.50421875 10.59375 -17.82421875 10.59375 C-17.61796875 9.871875 -17.41171875 9.15 -17.19921875 8.40625 C-13.36375706 0.56098746 -7.9820739 -0.14590016 0 0 Z M242.17578125 39.59375 C235.41701481 46.27343339 235.41701481 46.27343339 232.17578125 54.59375 C231.51578125 54.59375 230.85578125 54.59375 230.17578125 54.59375 C230.17578125 55.25375 230.17578125 55.91375 230.17578125 56.59375 C238.09578125 56.59375 246.01578125 56.59375 254.17578125 56.59375 C252.67285349 52.83643061 251.36235948 50.07751668 249.17578125 46.78125 C248.66015625 45.99105469 248.14453125 45.20085937 247.61328125 44.38671875 C247.13890625 43.79503906 246.66453125 43.20335937 246.17578125 42.59375 C245.51578125 42.59375 244.85578125 42.59375 244.17578125 42.59375 C243.84578125 41.60375 243.51578125 40.61375 243.17578125 39.59375 C242.84578125 39.59375 242.51578125 39.59375 242.17578125 39.59375 Z " fill="#040404" transform="translate(251.82421875,65.40625)"/>
<path d="M0 0 C1.84179655 0.00119385 3.68359371 0.00164453 5.52539062 0.00138855 C9.36478545 0.00294493 13.20408592 0.01117449 17.04345703 0.0246582 C21.97092692 0.04174296 26.89829435 0.04546935 31.82579041 0.04471302 C35.61921165 0.04498432 39.41261039 0.05045748 43.20602417 0.05771446 C45.02415802 0.06089983 46.84229442 0.06286823 48.66043091 0.06360817 C51.19033201 0.0657677 53.72012253 0.07450069 56.25 0.08520508 C57.0032103 0.08475189 57.75642059 0.08429871 58.53245544 0.08383179 C63.70852412 0.11598081 63.70852412 0.11598081 65.9375 1.23046875 C65.9375 19.38046875 65.9375 37.53046875 65.9375 56.23046875 C83.4275 56.23046875 100.9175 56.23046875 118.9375 56.23046875 C118.6075 54.25046875 118.2775 52.27046875 117.9375 50.23046875 C117.2775 50.23046875 116.6175 50.23046875 115.9375 50.23046875 C115.9375 49.57046875 115.9375 48.91046875 115.9375 48.23046875 C115.2775 48.23046875 114.6175 48.23046875 113.9375 48.23046875 C113.9375 47.57046875 113.9375 46.91046875 113.9375 46.23046875 C113.2775 46.23046875 112.6175 46.23046875 111.9375 46.23046875 C111.9375 45.57046875 111.9375 44.91046875 111.9375 44.23046875 C111.2775 44.23046875 110.6175 44.23046875 109.9375 44.23046875 C109.9375 43.57046875 109.9375 42.91046875 109.9375 42.23046875 C109.2775 42.23046875 108.6175 42.23046875 107.9375 42.23046875 C107.9375 41.57046875 107.9375 40.91046875 107.9375 40.23046875 C107.2775 40.23046875 106.6175 40.23046875 105.9375 40.23046875 C104.4296875 38.55078125 104.4296875 38.55078125 102.8125 36.35546875 C102.27367187 35.63617188 101.73484375 34.916875 101.1796875 34.17578125 C99.9375 32.23046875 99.9375 32.23046875 99.9375 30.23046875 C99.2775 30.23046875 98.6175 30.23046875 97.9375 30.23046875 C97.9375 29.57046875 97.9375 28.91046875 97.9375 28.23046875 C97.2775 28.23046875 96.6175 28.23046875 95.9375 28.23046875 C95.9375 27.57046875 95.9375 26.91046875 95.9375 26.23046875 C95.2775 26.23046875 94.6175 26.23046875 93.9375 26.23046875 C93.9375 25.57046875 93.9375 24.91046875 93.9375 24.23046875 C93.2775 24.23046875 92.6175 24.23046875 91.9375 24.23046875 C91.9375 23.57046875 91.9375 22.91046875 91.9375 22.23046875 C91.2775 22.23046875 90.6175 22.23046875 89.9375 22.23046875 C88.4296875 20.55078125 88.4296875 20.55078125 86.8125 18.35546875 C86.27367187 17.63617188 85.73484375 16.916875 85.1796875 16.17578125 C83.9375 14.23046875 83.9375 14.23046875 83.9375 12.23046875 C83.2775 12.23046875 82.6175 12.23046875 81.9375 12.23046875 C81.9375 11.57046875 81.9375 10.91046875 81.9375 10.23046875 C81.2775 10.23046875 80.6175 10.23046875 79.9375 10.23046875 C79.9375 9.57046875 79.9375 8.91046875 79.9375 8.23046875 C79.2775 8.23046875 78.6175 8.23046875 77.9375 8.23046875 C77.9375 5.92046875 77.9375 3.61046875 77.9375 1.23046875 C80.78757131 -0.1945669 83.22370255 0.1006684 86.40625 0.09765625 C87.69917969 0.09636719 88.99210938 0.09507813 90.32421875 0.09375 C90.99888184 0.09584473 91.67354492 0.09793945 92.36865234 0.10009766 C94.42943689 0.10544782 96.49000349 0.1001484 98.55078125 0.09375 C100.49017578 0.09568359 100.49017578 0.09568359 102.46875 0.09765625 C103.66048828 0.09878418 104.85222656 0.09991211 106.08007812 0.10107422 C108.9375 0.23046875 108.9375 0.23046875 110.9375 1.23046875 C110.9375 1.89046875 110.9375 2.55046875 110.9375 3.23046875 C111.5975 3.23046875 112.2575 3.23046875 112.9375 3.23046875 C115.0625 5.04296875 115.0625 5.04296875 116.9375 7.23046875 C116.9375 8.22046875 116.9375 9.21046875 116.9375 10.23046875 C117.5975 10.23046875 118.2575 10.23046875 118.9375 10.23046875 C120.52283702 11.94379629 122.03291215 13.72735922 123.5 15.54296875 C124.30566406 16.52910156 125.11132812 17.51523438 125.94140625 18.53125 C127.9375 21.23046875 127.9375 21.23046875 128.9375 24.23046875 C129.5975 24.23046875 130.2575 24.23046875 130.9375 24.23046875 C130.9375 24.89046875 130.9375 25.55046875 130.9375 26.23046875 C131.5975 26.23046875 132.2575 26.23046875 132.9375 26.23046875 C132.9375 26.89046875 132.9375 27.55046875 132.9375 28.23046875 C138.83101382 22.52706827 144.98065872 16.56042244 149.375 9.60546875 C150.1484375 8.42984375 150.1484375 8.42984375 150.9375 7.23046875 C151.5975 7.23046875 152.2575 7.23046875 152.9375 7.23046875 C153.3396875 6.33328125 153.3396875 6.33328125 153.75 5.41796875 C155.01373734 3.09003155 155.82206054 1.82471298 157.9375 0.23046875 C160.90844727 -0.12597656 160.90844727 -0.12597656 164.50390625 -0.09765625 C165.79361328 -0.0925 167.08332031 -0.08734375 168.41210938 -0.08203125 C169.08266357 -0.07171875 169.75321777 -0.06140625 170.4440918 -0.05078125 C172.49611585 -0.01959029 174.54737161 -0.0098056 176.59960938 -0.00390625 C186.62930541 0.07637146 186.62930541 0.07637146 188.9375 1.23046875 C188.9375 3.54046875 188.9375 5.85046875 188.9375 8.23046875 C188.2775 8.23046875 187.6175 8.23046875 186.9375 8.23046875 C186.56625 9.03484375 186.56625 9.03484375 186.1875 9.85546875 C184.63097463 12.81286695 182.90314327 15.52770926 180.9375 18.23046875 C180.2775 18.23046875 179.6175 18.23046875 178.9375 18.23046875 C178.9375 18.89046875 178.9375 19.55046875 178.9375 20.23046875 C178.2775 20.23046875 177.6175 20.23046875 176.9375 20.23046875 C176.9375 20.89046875 176.9375 21.55046875 176.9375 22.23046875 C176.2775 22.23046875 175.6175 22.23046875 174.9375 22.23046875 C174.9375 22.89046875 174.9375 23.55046875 174.9375 24.23046875 C174.2775 24.23046875 173.6175 24.23046875 172.9375 24.23046875 C172.69 24.76671875 172.4425 25.30296875 172.1875 25.85546875 C170.63097463 28.81286695 168.90314327 31.52770926 166.9375 34.23046875 C166.2775 34.23046875 165.6175 34.23046875 164.9375 34.23046875 C164.9375 34.89046875 164.9375 35.55046875 164.9375 36.23046875 C164.2775 36.23046875 163.6175 36.23046875 162.9375 36.23046875 C162.9375 36.89046875 162.9375 37.55046875 162.9375 38.23046875 C162.2775 38.23046875 161.6175 38.23046875 160.9375 38.23046875 C160.56625 39.03484375 160.56625 39.03484375 160.1875 39.85546875 C158.63097463 42.81286695 156.90314327 45.52770926 154.9375 48.23046875 C154.2775 48.23046875 153.6175 48.23046875 152.9375 48.23046875 C152.9375 48.89046875 152.9375 49.55046875 152.9375 50.23046875 C152.2775 50.23046875 151.6175 50.23046875 150.9375 50.23046875 C150.9375 50.89046875 150.9375 51.55046875 150.9375 52.23046875 C150.2775 52.23046875 149.6175 52.23046875 148.9375 52.23046875 C148.9375 60.48046875 148.9375 68.73046875 148.9375 77.23046875 C148.2775 77.23046875 147.6175 77.23046875 146.9375 77.23046875 C146.6075 78.22046875 146.2775 79.21046875 145.9375 80.23046875 C141.97918191 80.25939732 138.02089083 80.27724302 134.0625 80.29296875 C132.37060547 80.30553711 132.37060547 80.30553711 130.64453125 80.31835938 C129.56816406 80.32158203 128.49179687 80.32480469 127.3828125 80.328125 C126.38781738 80.33336182 125.39282227 80.33859863 124.36767578 80.34399414 C121.9375 80.23046875 121.9375 80.23046875 119.9375 79.23046875 C119.5234375 76.0703125 119.5234375 76.0703125 119.3125 72.16796875 C119.20035156 70.23244141 119.20035156 70.23244141 119.0859375 68.2578125 C119.03695312 67.25878906 118.98796875 66.25976562 118.9375 65.23046875 C118.2775 65.23046875 117.6175 65.23046875 116.9375 65.23046875 C116.2775 66.88046875 115.6175 68.53046875 114.9375 70.23046875 C114.2775 70.23046875 113.6175 70.23046875 112.9375 70.23046875 C112.2775 71.88046875 111.6175 73.53046875 110.9375 75.23046875 C110.2775 75.23046875 109.6175 75.23046875 108.9375 75.23046875 C108.9375 75.89046875 108.9375 76.55046875 108.9375 77.23046875 C108.2775 77.23046875 107.6175 77.23046875 106.9375 77.23046875 C106.9375 77.89046875 106.9375 78.55046875 106.9375 79.23046875 C104.15672811 80.6208547 101.88670354 80.35769998 98.77539062 80.35986328 C97.48064819 80.36301544 96.18590576 80.3661676 94.85192871 80.36941528 C93.43253546 80.36762545 92.01314252 80.36557448 90.59375 80.36328125 C89.14408349 80.3639546 87.6944171 80.36492488 86.24475098 80.36618042 C83.20498582 80.36765594 80.16525003 80.3655075 77.12548828 80.36083984 C73.22462883 80.35514263 69.32383818 80.35842241 65.42298126 80.36441231 C62.42905151 80.36802184 59.43513813 80.36687753 56.44120789 80.36428452 C55.00266003 80.36361633 53.56411071 80.36443989 52.12556458 80.36676407 C50.11691312 80.36929695 48.10825647 80.3647535 46.09960938 80.35986328 C44.3832428 80.35866989 44.3832428 80.35866989 42.63220215 80.35745239 C39.9375 80.23046875 39.9375 80.23046875 37.9375 79.23046875 C37.5234375 76.9453125 37.5234375 76.9453125 37.3125 74.16796875 C37.20035156 72.78931641 37.20035156 72.78931641 37.0859375 71.3828125 C37.01246094 70.31740234 37.01246094 70.31740234 36.9375 69.23046875 C36.15375 70.22046875 35.37 71.21046875 34.5625 72.23046875 C33.69625 73.22046875 32.83 74.21046875 31.9375 75.23046875 C31.2775 75.23046875 30.6175 75.23046875 29.9375 75.23046875 C29.4734375 76.18953125 29.4734375 76.18953125 29 77.16796875 C27.9375 79.23046875 27.9375 79.23046875 26.9375 80.23046875 C25.52283442 80.33900435 24.10285329 80.37948555 22.68408203 80.39160156 C21.77868683 80.40120911 20.87329163 80.41081665 19.94046021 80.42071533 C18.45786209 80.42709015 18.45786209 80.42709015 16.9453125 80.43359375 C15.92960175 80.43929382 14.91389099 80.4449939 13.86740112 80.4508667 C11.7068588 80.46033995 9.54630187 80.46685985 7.38574219 80.47070312 C4.11106158 80.48032605 0.83703087 80.51129251 -2.4375 80.54296875 C-4.53905878 80.54950698 -6.64062205 80.55475422 -8.7421875 80.55859375 C-9.71034393 80.57094055 -10.67850037 80.58328735 -11.67599487 80.5960083 C-20.55856843 80.56755596 -28.87587345 78.76532647 -36.75 74.54296875 C-37.57886719 74.10597656 -38.40773438 73.66898437 -39.26171875 73.21875 C-39.85597656 72.89261719 -40.45023438 72.56648438 -41.0625 72.23046875 C-41.0625 71.57046875 -41.0625 70.91046875 -41.0625 70.23046875 C-41.619375 70.00359375 -42.17625 69.77671875 -42.75 69.54296875 C-46.74688886 67.27446426 -49.60216649 64.61146929 -51.0625 60.23046875 C-51.7225 60.23046875 -52.3825 60.23046875 -53.0625 60.23046875 C-53.26746094 59.52019531 -53.47242188 58.80992188 -53.68359375 58.078125 C-53.95300781 57.15902344 -54.22242188 56.23992187 -54.5 55.29296875 C-54.76683594 54.37644531 -55.03367187 53.45992187 -55.30859375 52.515625 C-55.85276051 50.29021945 -55.85276051 50.29021945 -57.0625 49.23046875 C-57.31435049 45.98815827 -57.2477298 42.73140105 -57.25 39.48046875 C-57.26224609 38.57296875 -57.27449219 37.66546875 -57.28710938 36.73046875 C-57.29718673 32.13519371 -57.27422763 28.39166381 -55.0625 24.23046875 C-54.4025 24.23046875 -53.7425 24.23046875 -53.0625 24.23046875 C-52.96195313 23.48796875 -52.86140625 22.74546875 -52.7578125 21.98046875 C-51.16983486 15.69992798 -45.19913531 10.80330993 -39.93359375 7.3203125 C-27.1518361 -0.12459436 -14.36895879 -0.06161501 0 0 Z M35.9375 12.23046875 C32.63459808 15.68248708 32.63459808 15.68248708 31.9375 20.23046875 C31.2775 20.23046875 30.6175 20.23046875 29.9375 20.23046875 C29.9375 20.89046875 29.9375 21.55046875 29.9375 22.23046875 C29.2775 22.23046875 28.6175 22.23046875 27.9375 22.23046875 C27.9375 22.89046875 27.9375 23.55046875 27.9375 24.23046875 C26.68203369 24.20952148 25.42656738 24.18857422 24.13305664 24.16699219 C19.44225626 24.0941878 14.7515051 24.04852267 10.06030273 24.01074219 C8.03612854 23.99071845 6.01201153 23.96349108 3.98803711 23.92871094 C1.06609935 23.87978413 -1.8550688 23.85740725 -4.77734375 23.83984375 C-5.67146469 23.81919861 -6.56558563 23.79855347 -7.48680115 23.77728271 C-13.83243341 23.775054 -18.47948306 25.23856916 -24.0625 28.23046875 C-24.0625 28.89046875 -24.0625 29.55046875 -24.0625 30.23046875 C-24.7225 30.23046875 -25.3825 30.23046875 -26.0625 30.23046875 C-26.0625 31.55046875 -26.0625 32.87046875 -26.0625 34.23046875 C-26.7225 34.23046875 -27.3825 34.23046875 -28.0625 34.23046875 C-29.49930971 40.36956478 -28.38887691 44.43424154 -26.0625 50.23046875 C-25.4025 50.23046875 -24.7425 50.23046875 -24.0625 50.23046875 C-24.0625 50.89046875 -24.0625 51.55046875 -24.0625 52.23046875 C-20.83458445 54.38241245 -19.77849191 54.43133318 -16.0625 54.23046875 C-16.0625 54.89046875 -16.0625 55.55046875 -16.0625 56.23046875 C1.7575 56.23046875 19.5775 56.23046875 37.9375 56.23046875 C37.9375 41.71046875 37.9375 27.19046875 37.9375 12.23046875 C37.2775 12.23046875 36.6175 12.23046875 35.9375 12.23046875 Z " fill="#040404" transform="translate(609.0625,65.76953125)"/>
<path d="M0 0 C1.10545166 -0.00945648 2.21090332 -0.01891296 3.34985352 -0.02865601 C5.14507446 -0.01954697 5.14507446 -0.01954697 6.9765625 -0.01025391 C8.82882446 -0.01455917 8.82882446 -0.01455917 10.71850586 -0.01895142 C14.00896914 -0.02151933 17.29900947 -0.00943863 20.5894165 0.00732422 C23.89951099 0.01696322 27.20947646 -0.00595825 30.51953125 -0.02197266 C33.06771055 -0.01998816 35.61588922 -0.01614022 38.1640625 -0.01025391 C39.34468262 -0.0163266 40.52530273 -0.02239929 41.74169922 -0.02865601 C51.21947968 0.05061252 59.86054363 1.55604304 68.2890625 6.07568359 C69.11792969 6.51267578 69.94679688 6.94966797 70.80078125 7.39990234 C71.39503906 7.72603516 71.98929688 8.05216797 72.6015625 8.38818359 C72.6015625 9.04818359 72.6015625 9.70818359 72.6015625 10.38818359 C73.1790625 10.61505859 73.7565625 10.84193359 74.3515625 11.07568359 C78.76554761 13.65050824 81.13716186 17.59676747 82.6015625 22.38818359 C82.83623803 25.49745274 82.79050081 28.58492058 82.7265625 31.70068359 C82.71753906 32.53664062 82.70851563 33.37259766 82.69921875 34.23388672 C82.67577239 36.28544329 82.63990516 38.33685136 82.6015625 40.38818359 C81.9415625 40.38818359 81.2815625 40.38818359 80.6015625 40.38818359 C80.6015625 41.70818359 80.6015625 43.02818359 80.6015625 44.38818359 C79.9415625 44.38818359 79.2815625 44.38818359 78.6015625 44.38818359 C78.4571875 45.00693359 78.3128125 45.62568359 78.1640625 46.26318359 C77.6015625 48.38818359 77.6015625 48.38818359 76.6015625 50.38818359 C75.9415625 50.38818359 75.2815625 50.38818359 74.6015625 50.38818359 C74.6015625 51.04818359 74.6015625 51.70818359 74.6015625 52.38818359 C73.26822917 53.72151693 71.93489583 55.05485026 70.6015625 56.38818359 C70.6015625 57.04818359 70.6015625 57.70818359 70.6015625 58.38818359 C71.2615625 58.38818359 71.9215625 58.38818359 72.6015625 58.38818359 C72.6015625 59.04818359 72.6015625 59.70818359 72.6015625 60.38818359 C73.2615625 60.38818359 73.9215625 60.38818359 74.6015625 60.38818359 C74.6015625 61.04818359 74.6015625 61.70818359 74.6015625 62.38818359 C75.2615625 62.38818359 75.9215625 62.38818359 76.6015625 62.38818359 C76.6015625 63.04818359 76.6015625 63.70818359 76.6015625 64.38818359 C77.1790625 64.67693359 77.7565625 64.96568359 78.3515625 65.26318359 C80.43489583 66.30485026 82.51822917 67.34651693 84.6015625 68.38818359 C84.6015625 69.04818359 84.6015625 69.70818359 84.6015625 70.38818359 C85.2615625 70.38818359 85.9215625 70.38818359 86.6015625 70.38818359 C86.6015625 71.04818359 86.6015625 71.70818359 86.6015625 72.38818359 C87.2615625 72.38818359 87.9215625 72.38818359 88.6015625 72.38818359 C88.6015625 73.04818359 88.6015625 73.70818359 88.6015625 74.38818359 C89.2615625 74.38818359 89.9215625 74.38818359 90.6015625 74.38818359 C89.7265625 79.26318359 89.7265625 79.26318359 88.6015625 80.38818359 C83.86614467 80.68058473 79.12785838 80.70235239 74.38427734 80.73828125 C72.78972713 80.75477325 71.19524877 80.78197367 69.60107422 80.8203125 C67.29616132 80.87545396 64.99298626 80.89701575 62.6875 80.91162109 C61.98305756 80.93429047 61.27861511 80.95695984 60.55282593 80.98031616 C54.6984732 80.95566864 51.88291503 79.09431446 47.6015625 75.38818359 C47.6015625 74.72818359 47.6015625 74.06818359 47.6015625 73.38818359 C45.6215625 72.89318359 45.6215625 72.89318359 43.6015625 72.38818359 C43.6015625 71.72818359 43.6015625 71.06818359 43.6015625 70.38818359 C43.0653125 70.16130859 42.5290625 69.93443359 41.9765625 69.70068359 C39.6015625 68.38818359 39.6015625 68.38818359 37.2890625 65.85693359 C32.48771804 61.80097987 26.19304304 62.60477261 20.2265625 62.57568359 C19.01355469 62.55054688 17.80054688 62.52541016 16.55078125 62.49951172 C13.56805537 62.44079664 10.58477441 62.41158968 7.6015625 62.38818359 C7.6015625 67.33818359 7.6015625 72.28818359 7.6015625 77.38818359 C6.9415625 77.38818359 6.2815625 77.38818359 5.6015625 77.38818359 C5.2715625 78.37818359 4.9415625 79.36818359 4.6015625 80.38818359 C-3.3184375 80.38818359 -11.2384375 80.38818359 -19.3984375 80.38818359 C-19.7284375 79.39818359 -20.0584375 78.40818359 -20.3984375 77.38818359 C-21.0584375 77.38818359 -21.7184375 77.38818359 -22.3984375 77.38818359 C-22.44786115 72.31617659 -22.48416818 67.24430966 -22.50830078 62.17211914 C-22.51836076 60.44650837 -22.53201026 58.72091464 -22.54931641 56.99536133 C-22.57356504 54.51558219 -22.58492051 52.03602837 -22.59375 49.55615234 C-22.60407257 48.78418015 -22.61439514 48.01220795 -22.62503052 47.21684265 C-22.62583172 43.39536884 -22.57086345 41.64682252 -20.3984375 38.38818359 C-17.603302 37.9961853 -17.603302 37.9961853 -13.99267578 37.97167969 C-13.00701126 37.95880165 -13.00701126 37.95880165 -12.00143433 37.94566345 C-9.82376508 37.9205199 -7.64655137 37.9162164 -5.46875 37.91162109 C-3.95659997 37.89731463 -2.44446301 37.88155825 -0.93234253 37.8644104 C3.05439649 37.82247902 7.04105456 37.79753943 11.0279541 37.7769165 C17.40262329 37.74116446 23.77709196 37.68002917 30.15155411 37.61842728 C32.37836925 37.59935983 34.60513111 37.58761074 36.83200073 37.57699585 C38.20033886 37.56678037 39.56867593 37.55642217 40.93701172 37.54589844 C42.13010956 37.53940277 43.3232074 37.5329071 44.55245972 37.5262146 C47.09466003 37.41113076 49.18494859 37.13621751 51.6015625 36.38818359 C51.6015625 35.72818359 51.6015625 35.06818359 51.6015625 34.38818359 C52.2615625 34.38818359 52.9215625 34.38818359 53.6015625 34.38818359 C52.8053623 29.68178566 52.8053623 29.68178566 49.93522644 26.18055725 C46.88293679 25.14418099 44.23804886 25.11341633 41.01293945 25.08520508 C40.36047241 25.07676575 39.70800537 25.06832642 39.0357666 25.05963135 C36.88711799 25.03391671 34.73860647 25.02173074 32.58984375 25.00927734 C31.09578873 24.99310044 29.60174426 24.97592024 28.10771179 24.95777893 C24.18070337 24.91214205 20.25368089 24.87730466 16.32653809 24.84558105 C10.02986965 24.7936478 3.73335552 24.72871171 -2.56311989 24.6573658 C-4.76624287 24.63447387 -6.96934595 24.61824452 -9.17253113 24.60264587 C-10.51435571 24.58924558 -11.85617818 24.57563134 -13.19799805 24.56176758 C-14.9619416 24.54749977 -14.9619416 24.54749977 -16.76152039 24.53294373 C-19.3984375 24.38818359 -19.3984375 24.38818359 -20.3984375 23.38818359 C-20.95213976 20.14507035 -20.7985725 18.07395343 -19.12890625 15.21240234 C-17.62963571 13.15865706 -16.1785653 11.20520524 -14.3984375 9.38818359 C-13.7384375 9.38818359 -13.0784375 9.38818359 -12.3984375 9.38818359 C-12.3984375 8.72818359 -12.3984375 8.06818359 -12.3984375 7.38818359 C-11.7384375 7.38818359 -11.0784375 7.38818359 -10.3984375 7.38818359 C-10.1303125 6.79005859 -9.8621875 6.19193359 -9.5859375 5.57568359 C-7.09682892 0.99048358 -5.22824999 0.01282814 0 0 Z " fill="#040404" transform="translate(818.3984375,65.61181640625)"/>
<path d="M0 0 C0.99 0.33 1.98 0.66 3 1 C3 19.15 3 37.3 3 56 C20.49 56 37.98 56 56 56 C55.34 56.99 54.68 57.98 54 59 C51.67147827 59.36076355 51.67147827 59.36076355 48.72412109 59.34057617 C47.07263565 59.34023628 47.07263565 59.34023628 45.38778687 59.33988953 C44.19505157 59.32440567 43.00231628 59.30892181 41.7734375 59.29296875 C40.55548492 59.28872391 39.33753235 59.28447906 38.08267212 59.28010559 C34.17989296 59.26326831 30.27762396 59.22560595 26.375 59.1875 C23.73438244 59.17245974 21.09375681 59.15877019 18.453125 59.14648438 C11.96857496 59.11334822 5.48432392 59.06309861 -1 59 C-1.02312851 51.45501767 -1.04091769 43.91003899 -1.05181217 36.36502934 C-1.05703989 32.86191115 -1.0641355 29.35881715 -1.07543945 25.85571289 C-1.08834206 21.83219159 -1.09322912 17.80869586 -1.09765625 13.78515625 C-1.10539818 11.88987938 -1.10539818 11.88987938 -1.11329651 9.95631409 C-1.11337204 8.795186 -1.11344757 7.63405792 -1.11352539 6.43774414 C-1.11685631 4.8955294 -1.11685631 4.8955294 -1.12025452 3.32215881 C-1 1 -1 1 0 0 Z " fill="#0D0D0D" transform="translate(672,66)"/>
<path d="M0 0 C7.59 0 15.18 0 23 0 C22 4 22 4 20 6 C18.02880859 6.22705078 18.02880859 6.22705078 15.6484375 6.1953125 C14.37226563 6.18564453 14.37226563 6.18564453 13.0703125 6.17578125 C11.73613281 6.15064453 11.73613281 6.15064453 10.375 6.125 C9.02921875 6.11146484 9.02921875 6.11146484 7.65625 6.09765625 C5.43738678 6.07405132 3.2186603 6.03817962 1 6 C1 8.97 1 11.94 1 15 C0.34 15 -0.32 15 -1 15 C-0.67644531 16.07636719 -0.35289062 17.15273437 -0.01953125 18.26171875 C1.35038295 23.75954417 1.33037763 29.17389538 1.3125 34.8125 C1.32861328 35.84826172 1.34472656 36.88402344 1.36132812 37.95117188 C1.36197266 38.94310547 1.36261719 39.93503906 1.36328125 40.95703125 C1.36775269 42.30244995 1.36775269 42.30244995 1.37231445 43.67504883 C0.93306215 46.41799942 0.13206456 47.29004969 -2 49 C-6.00051548 40.99896905 -4.11433598 29.18320364 -4.0625 20.375 C-4.05747303 18.87890775 -4.05291225 17.38281387 -4.04882812 15.88671875 C-4.03792185 12.25777781 -4.02072382 8.62889973 -4 5 C-3.34 5 -2.68 5 -2 5 C-2 4.01 -2 3.02 -2 2 C-1.34 2 -0.68 2 0 2 C0 1.34 0 0.68 0 0 Z " fill="#181818" transform="translate(228,94)"/>
<path d="M0 0 C1.29873047 0.00966797 2.59746094 0.01933594 3.93554688 0.02929688 C5.30729764 0.0543629 6.67904243 0.07975774 8.05078125 0.10546875 C9.43423049 0.12051855 10.81769526 0.13420645 12.20117188 0.14648438 C15.58893332 0.18189652 18.97591264 0.23128821 22.36328125 0.29296875 C21.40421875 0.75703125 21.40421875 0.75703125 20.42578125 1.23046875 C18.42717304 2.12748505 18.42717304 2.12748505 17.36328125 3.29296875 C15.65764347 3.4503748 13.94600881 3.54390267 12.234375 3.609375 C11.19990234 3.65126953 10.16542969 3.69316406 9.09960938 3.73632812 C7.46668945 3.79530273 7.46668945 3.79530273 5.80078125 3.85546875 C4.16206055 3.92024414 4.16206055 3.92024414 2.49023438 3.98632812 C-0.21861439 4.09278943 -2.92755867 4.19480391 -5.63671875 4.29296875 C-5.96671875 5.28296875 -6.29671875 6.27296875 -6.63671875 7.29296875 C-8.57421875 9.48046875 -8.57421875 9.48046875 -10.63671875 11.29296875 C-11.29671875 11.29296875 -11.95671875 11.29296875 -12.63671875 11.29296875 C-13.64782968 14.34210103 -13.64782968 14.34210103 -12.63671875 17.29296875 C-13.58546875 17.35484375 -14.53421875 17.41671875 -15.51171875 17.48046875 C-16.54296875 17.74859375 -17.57421875 18.01671875 -18.63671875 18.29296875 C-20.08963148 20.7555256 -20.08963148 20.7555256 -20.63671875 23.29296875 C-20.96671875 23.29296875 -21.29671875 23.29296875 -21.63671875 23.29296875 C-22.31365652 18.78005027 -21.37602318 16.48408304 -18.76171875 12.91796875 C-17.14453125 10.83203125 -17.14453125 10.83203125 -15.63671875 9.29296875 C-14.97671875 9.29296875 -14.31671875 9.29296875 -13.63671875 9.29296875 C-13.63671875 8.63296875 -13.63671875 7.97296875 -13.63671875 7.29296875 C-12.97671875 7.29296875 -12.31671875 7.29296875 -11.63671875 7.29296875 C-11.36859375 6.69484375 -11.10046875 6.09671875 -10.82421875 5.48046875 C-8.0255903 0.32510056 -5.84845471 -0.07661731 0 0 Z " fill="#111111" transform="translate(819.63671875,65.70703125)"/>
<path d="M0 0 C0.66 0.33 1.32 0.66 2 1 C2 9.58 2 18.16 2 27 C11.24 27 20.48 27 30 27 C30 27.33 30 27.66 30 28 C29.23856689 28.02505615 28.47713379 28.0501123 27.69262695 28.07592773 C24.23242624 28.19219048 20.77247746 28.31477978 17.3125 28.4375 C15.51522461 28.49647461 15.51522461 28.49647461 13.68164062 28.55664062 C12.52470703 28.59853516 11.36777344 28.64042969 10.17578125 28.68359375 C9.11270752 28.72025146 8.04963379 28.75690918 6.9543457 28.79467773 C4.21795468 28.9848525 1.67143268 29.3931507 -1 30 C-1.22547184 25.56319547 -1.42745053 21.12562853 -1.625 16.6875 C-1.68945312 15.42486328 -1.75390625 14.16222656 -1.8203125 12.86132812 C-1.871875 11.65283203 -1.9234375 10.44433594 -1.9765625 9.19921875 C-2.02893066 8.08377686 -2.08129883 6.96833496 -2.13525391 5.8190918 C-2 3 -2 3 0 0 Z " fill="#101010" transform="translate(251,95)"/>
<path d="M0 0 C1.29422379 0.00212242 1.29422379 0.00212242 2.61459351 0.00428772 C5.3759098 0.00989437 8.13714562 0.02244798 10.8984375 0.03515625 C12.768228 0.04017039 14.63801976 0.04473345 16.5078125 0.04882812 C21.09638527 0.05986596 25.68489773 0.07713505 30.2734375 0.09765625 C30.2734375 0.42765625 30.2734375 0.75765625 30.2734375 1.09765625 C25.41380207 2.66149835 21.32199429 3.35354946 16.16796875 3.36328125 C14.85505859 3.36585937 13.54214844 3.3684375 12.18945312 3.37109375 C11.51567627 3.3669043 10.84189941 3.36271484 10.14770508 3.35839844 C8.08059724 3.34762843 6.01434786 3.35835968 3.94726562 3.37109375 C1.98370117 3.36722656 1.98370117 3.36722656 -0.01953125 3.36328125 C-1.2108667 3.36102539 -2.40220215 3.35876953 -3.62963867 3.35644531 C-6.57556025 3.11027449 -8.24610596 2.64071091 -10.7265625 1.09765625 C-7.39500999 -0.56812 -3.66120191 -0.02242231 0 0 Z " fill="#151515" transform="translate(250.7265625,65.90234375)"/>
<path d="M0 0 C7.26 0 14.52 0 22 0 C20 4 20 4 19 5 C17.65732587 5.08631874 16.31025678 5.10706473 14.96484375 5.09765625 C14.15595703 5.09443359 13.34707031 5.09121094 12.51367188 5.08789062 C11.66353516 5.07951172 10.81339844 5.07113281 9.9375 5.0625 C9.08349609 5.05798828 8.22949219 5.05347656 7.34960938 5.04882812 C5.23304337 5.03700373 3.11651315 5.01906769 1 5 C0.67 3.35 0.34 1.7 0 0 Z " fill="#2E2E2E" transform="translate(229,95)"/>
<path d="M0 0 C4.09338652 -0.04939115 8.18665798 -0.08571501 12.28027344 -0.10986328 C13.67320781 -0.11992877 15.06612102 -0.13358234 16.45898438 -0.15087891 C18.4595436 -0.1751022 20.46025615 -0.18540814 22.4609375 -0.1953125 C24.26763916 -0.21102295 24.26763916 -0.21102295 26.11083984 -0.22705078 C29 0 29 0 31 2 C25.20398907 4.29144618 20.39050051 3.90569671 14.23828125 3.28125 C11.38004345 3.03300739 8.67401957 3.01405255 5.8125 3.125 C3.9253125 3.063125 3.9253125 3.063125 2 3 C1.34 2.01 0.68 1.02 0 0 Z M-2 1 C-1.01 1.495 -1.01 1.495 0 2 C-0.99 2.495 -0.99 2.495 -2 3 C-2 2.34 -2 1.68 -2 1 Z " fill="#151515" transform="translate(767,66)"/>
<path d="M0 0 C1.30195312 0.00322266 2.60390625 0.00644531 3.9453125 0.00976562 C5.32552149 0.01812159 6.70572982 0.02658654 8.0859375 0.03515625 C9.47395676 0.04017124 10.86197772 0.04473415 12.25 0.04882812 C15.65368882 0.06064649 19.05729189 0.07712191 22.4609375 0.09765625 C22.7909375 0.75765625 23.1209375 1.41765625 23.4609375 2.09765625 C20.5389606 3.5586447 17.96200275 3.20900526 14.703125 3.1953125 C13.70854782 3.19319008 13.70854782 3.19319008 12.69387817 3.19102478 C10.57451887 3.18542379 8.45526491 3.17287125 6.3359375 3.16015625 C4.89974111 3.15514137 3.46354306 3.15057844 2.02734375 3.14648438 C-1.49482595 3.13545407 -5.01693395 3.11818884 -8.5390625 3.09765625 C-8.5390625 2.43765625 -8.5390625 1.77765625 -8.5390625 1.09765625 C-5.66887809 -0.33743596 -3.20362527 -0.01392881 0 0 Z " fill="#101010" transform="translate(695.5390625,65.90234375)"/>
<path d="M0 0 C0.99 0.33 1.98 0.66 3 1 C2.34 1 1.68 1 1 1 C0.67 12.88 0.34 24.76 0 37 C-0.66 37 -1.32 37 -2 37 C-2.0493651 32.05209823 -2.08570269 27.10433917 -2.10986328 22.15625 C-2.11993317 20.47230534 -2.13358988 18.78837821 -2.15087891 17.10449219 C-2.17508426 14.68680499 -2.18647296 12.26934857 -2.1953125 9.8515625 C-2.20563507 9.0963028 -2.21595764 8.34104309 -2.22659302 7.56289673 C-2.22699318 5.7070602 -2.12222716 3.8518072 -2 2 C-1.34 1.34 -0.68 0.68 0 0 Z " fill="#121212" transform="translate(798,106)"/>
<path d="M0 0 C8.58 0 17.16 0 26 0 C26 0.33 26 0.66 26 1 C24.60974609 1.09087891 24.60974609 1.09087891 23.19140625 1.18359375 C21.39509766 1.30927734 21.39509766 1.30927734 19.5625 1.4375 C18.36753906 1.51871094 17.17257812 1.59992188 15.94140625 1.68359375 C13.11429756 1.67656114 13.11429756 1.67656114 12 3 C9.98035801 3.07244053 7.95832876 3.08377188 5.9375 3.0625 C4.83277344 3.05347656 3.72804688 3.04445313 2.58984375 3.03515625 C1.30787109 3.01775391 1.30787109 3.01775391 0 3 C0 2.01 0 1.02 0 0 Z " fill="#111111" transform="translate(622,66)"/>
<path d="M0 0 C4.95 0 9.9 0 15 0 C15.33 0.99 15.66 1.98 16 3 C10.39 3 4.78 3 -1 3 C-0.67 2.01 -0.34 1.02 0 0 Z " fill="#565656" transform="translate(232,96)"/>
<path d="M0 0 C6.27 0 12.54 0 19 0 C14.46532336 3.40100748 13.2087218 3.33913116 7.75 3.1875 C6.48671875 3.16042969 5.2234375 3.13335937 3.921875 3.10546875 C2.95765625 3.07066406 1.9934375 3.03585938 1 3 C0.67 2.01 0.34 1.02 0 0 Z " fill="#141414" transform="translate(348,66)"/>
<path d="M0 0 C1.37478516 0.01740234 1.37478516 0.01740234 2.77734375 0.03515625 C3.69644531 0.04417969 4.61554687 0.05320312 5.5625 0.0625 C6.27277344 0.07410156 6.98304688 0.08570312 7.71484375 0.09765625 C2.54150806 2.73292537 2.54150806 2.73292537 -0.28515625 3.09765625 C-1.27515625 2.43765625 -2.26515625 1.77765625 -3.28515625 1.09765625 C-2.28515625 0.09765625 -2.28515625 0.09765625 0 0 Z " fill="#171717" transform="translate(815.28515625,65.90234375)"/>
<path d="M0 0 C1.98 0.495 1.98 0.495 4 1 C3.67 2.32 3.34 3.64 3 5 C1.68 5 0.36 5 -1 5 C-0.67 3.35 -0.34 1.7 0 0 Z " fill="#1A1A1A" transform="translate(406,118)"/>
<path d="M0 0 C2.475 0.495 2.475 0.495 5 1 C5 1.99 5 2.98 5 4 C3.35 3.67 1.7 3.34 0 3 C0 2.01 0 1.02 0 0 Z " fill="#1D1D1D" transform="translate(880,119)"/>
</svg>
